<svg width="512" height="512" viewBox="0 0 512 512" fill="none" xmlns="http://www.w3.org/2000/svg">
<g clip-path="url(#clip0_133_202)">
<path d="M188.899 159.87C188.899 129.468 164.15 104.78 133.817 104.78C103.414 104.78 78.7309 129.533 78.7309 159.87C78.7309 190.273 103.479 214.952 133.817 214.952C164.15 214.952 188.899 190.273 188.899 159.87ZM99.9509 159.87C99.9509 141.241 115.117 126.07 133.747 126.07C152.374 126.07 167.545 141.241 167.545 159.87C167.545 178.496 152.374 193.664 133.747 193.664C115.117 193.664 99.9509 178.496 99.9509 159.87ZM128.756 365.107H83.2515V299.578C83.2543 298.442 83.0325 297.316 82.599 296.265C82.1655 295.215 81.5287 294.26 80.7253 293.457C79.9219 292.653 78.9676 292.016 77.9173 291.582C76.8669 291.147 75.7412 290.925 74.6047 290.927C73.468 290.925 72.342 291.147 71.2914 291.581C70.2408 292.015 69.2862 292.652 68.4824 293.456C67.6787 294.26 67.0417 295.214 66.6079 296.265C66.1742 297.316 65.9522 298.442 65.9548 299.578V365.107H46.5966C45.7349 365.107 44.8004 364.441 44.8004 363.31V299.31C44.8004 270.907 67.9508 247.749 96.3575 247.749H170.202C180.52 247.749 189.699 250.615 198.28 256.464C200.143 257.728 202.208 258.327 204.268 258.327C207.663 258.327 210.988 256.733 213.049 253.675C216.378 248.818 215.114 242.228 210.256 238.903C198.212 230.656 184.711 226.464 170.203 226.464H96.3575C56.1737 226.464 23.5117 259.13 23.5117 299.31V363.31C23.5117 376.018 33.8933 386.4 46.5966 386.4H128.756C134.613 386.4 139.406 381.607 139.406 375.749C139.406 369.895 134.613 365.107 128.756 365.107ZM321.96 277.957C349.898 277.957 372.65 255.2 372.65 227.261C372.65 199.318 349.898 176.57 321.96 176.57C294.016 176.57 271.26 199.319 271.26 227.26C271.26 255.2 294.016 277.957 321.96 277.957ZM321.96 197.854C338.191 197.854 351.363 211.029 351.363 227.261C351.363 243.492 338.191 256.668 321.96 256.668C305.728 256.668 292.549 243.493 292.549 227.261C292.549 211.029 305.728 197.854 321.96 197.854ZM401.655 307.957C389.282 295.318 372.72 288.403 354.956 288.403H286.895C285.236 288.334 283.301 288.334 281.109 288.598C275.252 289.264 271.13 294.59 271.797 300.441C272.459 305.831 277.05 309.823 282.375 309.823C282.773 309.823 283.236 309.823 283.639 309.753C284.301 309.688 285.301 309.688 286.428 309.688H354.891C366.862 309.688 378.041 314.346 386.355 322.859C394.672 331.38 399.261 342.819 399.261 355.062V412.871C399.261 413.208 399.131 413.408 398.728 413.408H386.355V355.33C386.355 350.538 382.497 346.68 377.708 346.68C372.919 346.68 369.062 350.538 369.062 355.33V413.408H321.228C315.37 413.408 310.577 418.196 310.577 424.05C310.577 429.909 315.371 434.693 321.228 434.693H398.728C410.774 434.693 420.554 424.916 420.554 412.871V355.063C420.619 337.164 413.899 320.464 401.655 307.957Z" fill="black"/>
<path d="M177.993 307.957C177.993 331.51 197.151 350.603 220.63 350.603C244.183 350.603 263.276 331.444 263.276 307.957C263.276 284.407 244.118 265.318 220.63 265.318C197.086 265.318 177.993 284.472 177.993 307.957ZM220.63 286.607C232.406 286.607 241.992 296.184 241.992 307.957C241.992 319.733 232.407 329.318 220.63 329.318C208.857 329.318 199.28 319.734 199.28 307.957C199.28 296.184 208.857 286.607 220.63 286.607ZM285.565 375.018C275.252 364.44 261.415 358.656 246.647 358.656H193.492C162.886 358.656 138.004 383.534 138.004 414.136V460.311C138.004 471.152 146.857 479.998 157.699 479.998H281.842C292.55 479.998 301.264 471.152 301.264 460.311V414.136C301.403 399.302 295.744 385.4 285.565 375.018ZM193.557 379.94H246.711C255.695 379.94 264.146 383.469 270.399 389.92C276.651 396.376 280.11 404.961 280.11 414.136V458.713H273.723V414.408C273.726 413.272 273.504 412.146 273.07 411.095C272.637 410.044 272 409.09 271.196 408.286C270.392 407.482 269.438 406.845 268.387 406.411C267.336 405.977 266.21 405.755 265.074 405.758C263.937 405.755 262.811 405.978 261.761 406.412C260.711 406.846 259.756 407.483 258.953 408.287C258.15 409.09 257.513 410.045 257.079 411.096C256.646 412.146 256.424 413.272 256.427 414.408V458.713H186.37V414.408C186.37 409.615 182.512 405.758 177.723 405.758C172.934 405.758 169.073 409.615 169.073 414.408V458.713H159.362V414.136C159.362 395.246 174.661 379.94 193.557 379.94ZM431.732 118.354L369.724 87.8208V18.1636C369.724 7.9839 361.741 0 351.561 0H307.721C297.542 0 289.562 7.9839 289.562 18.1625V48.4997L227.221 18.1625C220.904 15.102 213.716 15.102 207.395 18.1625L5.95055 116.822C0.361198 119.554 -1.96883 126.338 0.758728 131.927C1.69831 133.824 3.14917 135.421 4.94776 136.538C6.74636 137.655 8.82119 138.248 10.9384 138.249C12.6003 138.249 14.3289 137.846 15.9304 137.115L217.309 38.4553L295.813 76.7077C295.944 76.7764 296.078 76.8419 296.208 76.9065C296.277 76.9065 296.342 76.972 296.411 76.972C296.675 77.1063 297.012 77.1708 297.277 77.3092C297.342 77.3092 297.407 77.3748 297.472 77.3748C297.809 77.4393 298.074 77.5735 298.407 77.638H298.541C298.874 77.7036 299.204 77.7681 299.606 77.7681C300.001 77.8379 300.337 77.8378 300.736 77.8378C301.066 77.8378 301.467 77.8379 301.797 77.7681H302.066C302.33 77.7681 302.667 77.7036 302.932 77.638H303.126C303.463 77.5735 303.728 77.5048 303.996 77.4403C304.126 77.3748 304.26 77.3748 304.325 77.3092C304.529 77.2363 304.728 77.1708 304.923 77.1063C305.058 77.0407 305.126 77.0407 305.261 76.971C305.525 76.8419 305.793 76.7077 306.058 76.5735C306.122 76.5048 306.188 76.5048 306.325 76.4392C306.525 76.3091 306.789 76.1749 306.988 76.0448C307.057 75.972 307.122 75.972 307.187 75.9064C307.72 75.512 308.252 75.1103 308.717 74.643C308.781 74.5775 308.781 74.5775 308.854 74.513C309.05 74.3131 309.248 74.0447 309.451 73.8459C309.451 73.7803 309.517 73.7803 309.517 73.7158C309.716 73.4473 309.915 73.183 310.118 72.9114C310.118 72.8458 310.183 72.8458 310.183 72.7803C310.313 72.5825 310.447 72.3172 310.578 72.1142C310.643 71.9842 310.716 71.9186 310.781 71.7844C310.846 71.7198 310.846 71.6512 310.915 71.5814C310.98 71.5169 310.98 71.4513 310.98 71.3868C311.046 71.187 311.179 70.9841 311.244 70.7198C311.313 70.5897 311.383 70.4554 311.383 70.317C311.447 70.1224 311.513 69.9226 311.577 69.7197C311.643 69.5209 311.643 69.3909 311.713 69.1869C311.777 68.9881 311.777 68.858 311.842 68.6593C311.914 68.4553 311.914 68.2565 311.914 68.0609C311.914 67.9235 311.98 67.7237 311.98 67.5936C311.98 67.3252 311.98 67.1253 312.045 66.8621V22.5531H347.037V95.069C347.037 95.273 347.037 95.5373 347.102 95.7319C347.102 95.8672 347.102 96.0691 347.171 96.2002C347.171 96.3979 347.236 96.6019 347.236 96.7975C347.236 96.9963 347.305 97.1992 347.371 97.3335C347.439 97.4636 347.439 97.6634 347.505 97.7976C347.569 97.9964 347.635 98.1951 347.704 98.3991C347.769 98.5292 347.769 98.6634 347.834 98.7935C347.907 98.9964 347.972 99.1952 348.102 99.3908C348.171 99.5251 348.236 99.6635 348.301 99.7936C348.367 99.9913 348.501 100.187 348.569 100.325C348.635 100.461 348.769 100.655 348.834 100.789C348.899 100.927 349.033 101.122 349.098 101.257C349.236 101.451 349.367 101.59 349.501 101.789C349.565 101.92 349.695 102.053 349.768 102.122C349.898 102.321 350.033 102.451 350.228 102.651C350.297 102.789 350.431 102.854 350.501 102.919C350.631 103.054 350.83 103.183 350.96 103.387C351.098 103.521 351.228 103.586 351.297 103.716C351.427 103.85 351.63 103.915 351.765 104.053C351.894 104.183 352.094 104.249 352.223 104.383C352.363 104.447 352.493 104.513 352.627 104.65C352.826 104.781 353.024 104.85 353.224 104.98C353.289 104.98 353.289 105.045 353.359 105.045L421.68 138.716C423.282 139.513 425.01 139.907 426.672 139.907C430.862 139.907 434.858 137.582 436.85 133.586C439.643 127.932 437.319 121.147 431.732 118.354Z" fill="black"/>
</g>
<defs>
<clipPath id="clip0_133_202">
<rect width="512" height="512" fill="white"/>
</clipPath>
</defs>
</svg>
